solid 
 facet normal  0.000000e+00 -1.000000e+00  0.000000e+00
   outer loop
     vertex -9.220166e-02 -1.700000e+00  3.923925e-01
     vertex -9.728555e-02 -1.700000e+00  3.841713e-01
     vertex -1.016383e-01 -1.700000e+00  3.755406e-01
   endloop
 endfacet
 facet normal  0.000000e+00 -1.000000e+00  0.000000e+00
   outer loop
     vertex -7.999847e-02 -1.700000e+00  4.073631e-01
     vertex -9.220166e-02 -1.700000e+00  3.923925e-01
     vertex -1.016383e-01 -1.700000e+00  3.755406e-01
   endloop
 endfacet
 facet normal  0.000000e+00 -1.000000e+00  0.000000e+00
   outer loop
     vertex -7.999847e-02 -1.700000e+00  4.073631e-01
     vertex -1.096324e-01 -1.700000e+00  3.093717e-01
     vertex -1.074603e-01 -1.700000e+00  2.999528e-01
   endloop
 endfacet
 facet normal  0.000000e+00 -1.000000e+00  0.000000e+00
   outer loop
     vertex -7.999847e-02 -1.700000e+00  4.073631e-01
     vertex -1.109805e-01 -1.700000e+00  3.189434e-01
     vertex -1.096324e-01 -1.700000e+00  3.093717e-01
   endloop
 endfacet
 facet normal  0.000000e+00 -1.000000e+00  0.000000e+00
   outer loop
     vertex -7.999847e-02 -1.700000e+00  4.073631e-01
     vertex -1.114946e-01 -1.700000e+00  3.285959e-01
     vertex -1.109805e-01 -1.700000e+00  3.189434e-01
   endloop
 endfacet
 facet normal  0.000000e+00 -1.000000e+00  0.000000e+00
   outer loop
     vertex -7.999847e-02 -1.700000e+00  4.073631e-01
     vertex -1.111707e-01 -1.700000e+00  3.382567e-01
     vertex -1.114946e-01 -1.700000e+00  3.285959e-01
   endloop
 endfacet
 facet normal  0.000000e+00 -1.000000e+00  0.000000e+00
   outer loop
     vertex -7.999847e-02 -1.700000e+00  4.073631e-01
     vertex -1.100114e-01 -1.700000e+00  3.478531e-01
     vertex -1.111707e-01 -1.700000e+00  3.382567e-01
   endloop
 endfacet
 facet normal  0.000000e+00 -1.000000e+00  0.000000e+00
   outer loop
     vertex -7.999847e-02 -1.700000e+00  4.073631e-01
     vertex -1.080252e-01 -1.700000e+00  3.573130e-01
     vertex -1.100114e-01 -1.700000e+00  3.478531e-01
   endloop
 endfacet
 facet normal  0.000000e+00 -1.000000e+00  0.000000e+00
   outer loop
     vertex -7.999847e-02 -1.700000e+00  4.073631e-01
     vertex -1.052272e-01 -1.700000e+00  3.665653e-01
     vertex -1.080252e-01 -1.700000e+00  3.573130e-01
   endloop
 endfacet
 facet normal  0.000000e+00 -1.000000e+00  0.000000e+00
   outer loop
     vertex -7.999847e-02 -1.700000e+00  4.073631e-01
     vertex -1.016383e-01 -1.700000e+00  3.755406e-01
     vertex -1.052272e-01 -1.700000e+00  3.665653e-01
   endloop
 endfacet
 facet normal  0.000000e+00 -1.000000e+00  0.000000e+00
   outer loop
     vertex -7.999847e-02 -1.700000e+00  4.073631e-01
     vertex -8.642483e-02 -1.700000e+00  4.001426e-01
     vertex -9.220166e-02 -1.700000e+00  3.923925e-01
   endloop
 endfacet
 facet normal  0.000000e+00 -1.000000e+00  0.000000e+00
   outer loop
     vertex  7.999847e-02 -1.700000e+00  4.073631e-01
     vertex  9.220166e-02 -1.700000e+00  3.923925e-01
     vertex  8.642483e-02 -1.700000e+00  4.001426e-01
   endloop
 endfacet
 facet normal  0.000000e+00 -1.000000e+00  0.000000e+00
   outer loop
     vertex  7.999847e-02 -1.700000e+00  4.073631e-01
     vertex  9.728555e-02 -1.700000e+00  3.841713e-01
     vertex  9.220166e-02 -1.700000e+00  3.923925e-01
   endloop
 endfacet
 facet normal  0.000000e+00 -1.000000e+00  0.000000e+00
   outer loop
     vertex  7.999847e-02 -1.700000e+00  4.073631e-01
     vertex  1.016383e-01 -1.700000e+00  3.755406e-01
     vertex  9.728555e-02 -1.700000e+00  3.841713e-01
   endloop
 endfacet
 facet normal  0.000000e+00 -1.000000e+00  0.000000e+00
   outer loop
     vertex  7.999847e-02 -1.700000e+00  4.073631e-01
     vertex  1.052272e-01 -1.700000e+00  3.665653e-01
     vertex  1.016383e-01 -1.700000e+00  3.755406e-01
   endloop
 endfacet
 facet normal  0.000000e+00 -1.000000e+00  0.000000e+00
   outer loop
     vertex  7.999847e-02 -1.700000e+00  4.073631e-01
     vertex  1.080252e-01 -1.700000e+00  3.573130e-01
     vertex  1.052272e-01 -1.700000e+00  3.665653e-01
   endloop
 endfacet
 facet normal  0.000000e+00 -1.000000e+00  0.000000e+00
   outer loop
     vertex  7.999847e-02 -1.700000e+00  4.073631e-01
     vertex  1.100114e-01 -1.700000e+00  3.478531e-01
     vertex  1.080252e-01 -1.700000e+00  3.573130e-01
   endloop
 endfacet
 facet normal  0.000000e+00 -1.000000e+00  0.000000e+00
   outer loop
     vertex  7.999847e-02 -1.700000e+00  4.073631e-01
     vertex  1.111707e-01 -1.700000e+00  3.382567e-01
     vertex  1.100114e-01 -1.700000e+00  3.478531e-01
   endloop
 endfacet
 facet normal  0.000000e+00 -1.000000e+00  0.000000e+00
   outer loop
     vertex  7.999847e-02 -1.700000e+00  4.073631e-01
     vertex  1.114946e-01 -1.700000e+00  3.285959e-01
     vertex  1.111707e-01 -1.700000e+00  3.382567e-01
   endloop
 endfacet
 facet normal  0.000000e+00 -1.000000e+00  0.000000e+00
   outer loop
     vertex  7.999847e-02 -1.700000e+00  4.073631e-01
     vertex  1.109805e-01 -1.700000e+00  3.189434e-01
     vertex  1.114946e-01 -1.700000e+00  3.285959e-01
   endloop
 endfacet
 facet normal  0.000000e+00 -1.000000e+00  0.000000e+00
   outer loop
     vertex  7.999847e-02 -1.700000e+00  4.073631e-01
     vertex  1.096324e-01 -1.700000e+00  3.093717e-01
     vertex  1.109805e-01 -1.700000e+00  3.189434e-01
   endloop
 endfacet
 facet normal  0.000000e+00 -1.000000e+00  0.000000e+00
   outer loop
     vertex  7.999847e-02 -1.700000e+00  4.073631e-01
     vertex -7.999847e-02 -1.700000e+00  4.073631e-01
     vertex -1.074603e-01 -1.700000e+00  2.999528e-01
   endloop
 endfacet
 facet normal  0.000000e+00 -1.000000e+00  0.000000e+00
   outer loop
     vertex  7.999847e-02 -1.700000e+00  4.073631e-01
     vertex  1.074603e-01 -1.700000e+00  2.999528e-01
     vertex  1.096324e-01 -1.700000e+00  3.093717e-01
   endloop
 endfacet
 facet normal  0.000000e+00 -1.000000e+00  0.000000e+00
   outer loop
     vertex  7.999847e-02 -1.700000e+00  4.073631e-01
     vertex  1.044805e-01 -1.700000e+00  2.907573e-01
     vertex  1.074603e-01 -1.700000e+00  2.999528e-01
   endloop
 endfacet
 facet normal  0.000000e+00 -1.000000e+00  0.000000e+00
   outer loop
     vertex  7.999847e-02 -1.700000e+00  4.073631e-01
     vertex  1.007156e-01 -1.700000e+00  2.818545e-01
     vertex  1.044805e-01 -1.700000e+00  2.907573e-01
   endloop
 endfacet
 facet normal  0.000000e+00 -1.000000e+00  0.000000e+00
   outer loop
     vertex  7.999847e-02 -1.700000e+00  4.073631e-01
     vertex  9.619372e-02 -1.700000e+00  2.733112e-01
     vertex  1.007156e-01 -1.700000e+00  2.818545e-01
   endloop
 endfacet
 facet normal  0.000000e+00 -1.000000e+00  0.000000e+00
   outer loop
     vertex  7.999847e-02 -1.700000e+00  4.073631e-01
     vertex  9.094890e-02 -1.700000e+00  2.651917e-01
     vertex  9.619372e-02 -1.700000e+00  2.733112e-01
   endloop
 endfacet
 facet normal  0.000000e+00 -1.000000e+00  0.000000e+00
   outer loop
     vertex  7.999847e-02 -1.700000e+00  4.073631e-01
     vertex  8.502054e-02 -1.700000e+00  2.575569e-01
     vertex  9.094890e-02 -1.700000e+00  2.651917e-01
   endloop
 endfacet
 facet normal  0.000000e+00 -1.000000e+00 -0.000000e+00
   outer loop
     vertex  7.999847e-02 -1.700000e+00  4.073631e-01
     vertex  7.845322e-02 -1.700000e+00  2.504643e-01
     vertex  8.502054e-02 -1.700000e+00  2.575569e-01
   endloop
 endfacet
 facet normal  0.000000e+00 -1.000000e+00  0.000000e+00
   outer loop
     vertex  7.999847e-02 -1.700000e+00  4.073631e-01
     vertex  7.129627e-02 -1.700000e+00  2.439672e-01
     vertex  7.845322e-02 -1.700000e+00  2.504643e-01
   endloop
 endfacet
 facet normal  0.000000e+00 -1.000000e+00  0.000000e+00
   outer loop
     vertex  7.999847e-02 -1.700000e+00  4.073631e-01
     vertex  6.360350e-02 -1.700000e+00  2.381143e-01
     vertex  7.129627e-02 -1.700000e+00  2.439672e-01
   endloop
 endfacet
 facet normal  0.000000e+00 -1.000000e+00  0.000000e+00
   outer loop
     vertex  7.999847e-02 -1.700000e+00  4.073631e-01
     vertex  5.543271e-02 -1.700000e+00  2.329497e-01
     vertex  6.360350e-02 -1.700000e+00  2.381143e-01
   endloop
 endfacet
 facet normal  0.000000e+00 -1.000000e+00  0.000000e+00
   outer loop
     vertex  7.999847e-02 -1.700000e+00  4.073631e-01
     vertex  4.684531e-02 -1.700000e+00  2.285122e-01
     vertex  5.543271e-02 -1.700000e+00  2.329497e-01
   endloop
 endfacet
 facet normal  0.000000e+00 -1.000000e+00  0.000000e+00
   outer loop
     vertex  7.999847e-02 -1.700000e+00  4.073631e-01
     vertex  3.790585e-02 -1.700000e+00  2.248351e-01
     vertex  4.684531e-02 -1.700000e+00  2.285122e-01
   endloop
 endfacet
 facet normal  0.000000e+00 -1.000000e+00  0.000000e+00
   outer loop
     vertex  7.999847e-02 -1.700000e+00  4.073631e-01
     vertex  2.868151e-02 -1.700000e+00  2.219460e-01
     vertex  3.790585e-02 -1.700000e+00  2.248351e-01
   endloop
 endfacet
 facet normal  0.000000e+00 -1.000000e+00  0.000000e+00
   outer loop
     vertex  7.999847e-02 -1.700000e+00  4.073631e-01
     vertex  1.924160e-02 -1.700000e+00  2.198668e-01
     vertex  2.868151e-02 -1.700000e+00  2.219460e-01
   endloop
 endfacet
 facet normal  0.000000e+00 -1.000000e+00  0.000000e+00
   outer loop
     vertex  7.999847e-02 -1.700000e+00  4.073631e-01
     vertex  9.657091e-03 -1.700000e+00  2.186130e-01
     vertex  1.924160e-02 -1.700000e+00  2.198668e-01
   endloop
 endfacet
 facet normal  0.000000e+00 -1.000000e+00  0.000000e+00
   outer loop
     vertex  7.999847e-02 -1.700000e+00  4.073631e-01
     vertex  1.646538e-17 -1.700000e+00  2.181940e-01
     vertex  9.657091e-03 -1.700000e+00  2.186130e-01
   endloop
 endfacet
 facet normal  0.000000e+00 -1.000000e+00  0.000000e+00
   outer loop
     vertex  7.999847e-02 -1.700000e+00  4.073631e-01
     vertex -9.657091e-03 -1.700000e+00  2.186130e-01
     vertex  1.646538e-17 -1.700000e+00  2.181940e-01
   endloop
 endfacet
 facet normal  0.000000e+00 -1.000000e+00  0.000000e+00
   outer loop
     vertex  7.999847e-02 -1.700000e+00  4.073631e-01
     vertex -1.924160e-02 -1.700000e+00  2.198668e-01
     vertex -9.657091e-03 -1.700000e+00  2.186130e-01
   endloop
 endfacet
 facet normal  0.000000e+00 -1.000000e+00  0.000000e+00
   outer loop
     vertex  7.999847e-02 -1.700000e+00  4.073631e-01
     vertex -2.868151e-02 -1.700000e+00  2.219460e-01
     vertex -1.924160e-02 -1.700000e+00  2.198668e-01
   endloop
 endfacet
 facet normal  0.000000e+00 -1.000000e+00  0.000000e+00
   outer loop
     vertex  7.999847e-02 -1.700000e+00  4.073631e-01
     vertex -3.790585e-02 -1.700000e+00  2.248351e-01
     vertex -2.868151e-02 -1.700000e+00  2.219460e-01
   endloop
 endfacet
 facet normal  0.000000e+00 -1.000000e+00  0.000000e+00
   outer loop
     vertex  7.999847e-02 -1.700000e+00  4.073631e-01
     vertex -4.684531e-02 -1.700000e+00  2.285122e-01
     vertex -3.790585e-02 -1.700000e+00  2.248351e-01
   endloop
 endfacet
 facet normal  0.000000e+00 -1.000000e+00  0.000000e+00
   outer loop
     vertex  7.999847e-02 -1.700000e+00  4.073631e-01
     vertex -5.543271e-02 -1.700000e+00  2.329497e-01
     vertex -4.684531e-02 -1.700000e+00  2.285122e-01
   endloop
 endfacet
 facet normal  0.000000e+00 -1.000000e+00  0.000000e+00
   outer loop
     vertex  7.999847e-02 -1.700000e+00  4.073631e-01
     vertex -6.360350e-02 -1.700000e+00  2.381143e-01
     vertex -5.543271e-02 -1.700000e+00  2.329497e-01
   endloop
 endfacet
 facet normal  0.000000e+00 -1.000000e+00  0.000000e+00
   outer loop
     vertex  7.999847e-02 -1.700000e+00  4.073631e-01
     vertex -7.129627e-02 -1.700000e+00  2.439672e-01
     vertex -6.360350e-02 -1.700000e+00  2.381143e-01
   endloop
 endfacet
 facet normal  0.000000e+00 -1.000000e+00  0.000000e+00
   outer loop
     vertex  7.999847e-02 -1.700000e+00  4.073631e-01
     vertex -7.845322e-02 -1.700000e+00  2.504643e-01
     vertex -7.129627e-02 -1.700000e+00  2.439672e-01
   endloop
 endfacet
 facet normal  0.000000e+00 -1.000000e+00  0.000000e+00
   outer loop
     vertex  7.999847e-02 -1.700000e+00  4.073631e-01
     vertex -8.502054e-02 -1.700000e+00  2.575569e-01
     vertex -7.845322e-02 -1.700000e+00  2.504643e-01
   endloop
 endfacet
 facet normal  0.000000e+00 -1.000000e+00  0.000000e+00
   outer loop
     vertex  7.999847e-02 -1.700000e+00  4.073631e-01
     vertex -9.094890e-02 -1.700000e+00  2.651917e-01
     vertex -8.502054e-02 -1.700000e+00  2.575569e-01
   endloop
 endfacet
 facet normal  0.000000e+00 -1.000000e+00  0.000000e+00
   outer loop
     vertex  7.999847e-02 -1.700000e+00  4.073631e-01
     vertex -9.619372e-02 -1.700000e+00  2.733112e-01
     vertex -9.094890e-02 -1.700000e+00  2.651917e-01
   endloop
 endfacet
 facet normal  0.000000e+00 -1.000000e+00  0.000000e+00
   outer loop
     vertex  7.999847e-02 -1.700000e+00  4.073631e-01
     vertex -1.007156e-01 -1.700000e+00  2.818545e-01
     vertex -9.619372e-02 -1.700000e+00  2.733112e-01
   endloop
 endfacet
 facet normal  0.000000e+00 -1.000000e+00  0.000000e+00
   outer loop
     vertex  7.999847e-02 -1.700000e+00  4.073631e-01
     vertex -1.044805e-01 -1.700000e+00  2.907573e-01
     vertex -1.007156e-01 -1.700000e+00  2.818545e-01
   endloop
 endfacet
 facet normal  0.000000e+00 -1.000000e+00  0.000000e+00
   outer loop
     vertex  7.999847e-02 -1.700000e+00  4.073631e-01
     vertex -1.074603e-01 -1.700000e+00  2.999528e-01
     vertex -1.044805e-01 -1.700000e+00  2.907573e-01
   endloop
 endfacet
 facet normal -0.000000e+00 -1.000000e+00  0.000000e+00
   outer loop
     vertex  7.999847e-02 -1.700000e+00  4.073631e-01
     vertex -7.297087e-02 -1.700000e+00  4.140000e-01
     vertex -7.999847e-02 -1.700000e+00  4.073631e-01
   endloop
 endfacet
 facet normal  0.000000e+00 -1.000000e+00  0.000000e+00
   outer loop
     vertex  7.999847e-02 -1.700000e+00  4.073631e-01
     vertex  7.297087e-02 -1.700000e+00  4.140000e-01
     vertex -7.297087e-02 -1.700000e+00  4.140000e-01
   endloop
 endfacet
endsolid
